<svg xmlns="http://www.w3.org/2000/svg" width="1024" height="1024" viewBox="0 0 1024 1024"><filter id="dropshadow"><feGaussianBlur in="SourceAlpha" stdDeviation="20"/></filter><filter id="shadow"><feGaussianBlur in="SourceGraphic" stdDeviation="5"/></filter><linearGradient id="border" x1="0" x2="0" y1="62" y2="962" gradientUnits="userSpaceOnUse"><stop offset="0" stop-color="#fefefe"/><stop offset="1" stop-color="#cacaca"/></linearGradient><radialGradient id="node" cx=".5" cy=".5"><stop offset="0%" stop-color="#578691"/><stop offset="90%" stop-color="#55838D"/><stop offset="100%" stop-color="#44777a"/></radialGradient><linearGradient id="background" x1="0" x2="0" y1="100" y2="814" gradientUnits="userSpaceOnUse"><stop offset="0" stop-color="#A2D2DE"/><stop offset="1" stop-color="#b4e4f2"/></linearGradient><circle cx="512" cy="522" r="438" style="filter:url(#dropshadow)"/><circle cx="512" cy="512" r="456" fill="url(#border)"/><circle cx="512" cy="512" r="417" fill="url(#background)"/><line x1="296" x2="540" y1="392" y2="280" stroke="#000" stroke-width="12" opacity=".3"/><line x1="296" x2="540" y1="632" y2="280" stroke="#000" stroke-width="12" opacity=".3"/><line x1="296" x2="540" y1="392" y2="435" stroke="#000" stroke-width="12" opacity=".3"/><line x1="296" x2="540" y1="632" y2="435" stroke="#000" stroke-width="12" opacity=".3"/><line x1="296" x2="540" y1="392" y2="590" stroke="#000" stroke-width="12" opacity=".3"/><line x1="296" x2="540" y1="632" y2="590" stroke="#000" stroke-width="12" opacity=".3"/><line x1="296" x2="540" y1="392" y2="744" stroke="#000" stroke-width="12" opacity=".3"/><line x1="296" x2="540" y1="632" y2="744" stroke="#000" stroke-width="12" opacity=".3"/><line x1="540" x2="785" y1="280" y2="512" stroke="#000" stroke-width="12" opacity=".3"/><line x1="540" x2="785" y1="435" y2="512" stroke="#000" stroke-width="12" opacity=".3"/><line x1="540" x2="785" y1="590" y2="512" stroke="#000" stroke-width="12" opacity=".3"/><line x1="540" x2="785" y1="744" y2="512" stroke="#000" stroke-width="12" opacity=".3"/><line x1="296" x2="540" y1="392" y2="280" stroke="#55838D" stroke-width="10" opacity="1"/><line x1="296" x2="540" y1="632" y2="280" stroke="#55838D" stroke-width="10" opacity="1"/><line x1="296" x2="540" y1="392" y2="435" stroke="#55838D" stroke-width="10" opacity="1"/><line x1="296" x2="540" y1="632" y2="435" stroke="#55838D" stroke-width="10" opacity="1"/><line x1="296" x2="540" y1="392" y2="590" stroke="#55838D" stroke-width="10" opacity="1"/><line x1="296" x2="540" y1="632" y2="590" stroke="#55838D" stroke-width="10" opacity="1"/><line x1="296" x2="540" y1="392" y2="744" stroke="#55838D" stroke-width="10" opacity="1"/><line x1="296" x2="540" y1="632" y2="744" stroke="#55838D" stroke-width="10" opacity="1"/><line x1="540" x2="785" y1="280" y2="512" stroke="#55838D" stroke-width="10" opacity="1"/><line x1="540" x2="785" y1="435" y2="512" stroke="#55838D" stroke-width="10" opacity="1"/><line x1="540" x2="785" y1="590" y2="512" stroke="#55838D" stroke-width="10" opacity="1"/><line x1="540" x2="785" y1="744" y2="512" stroke="#55838D" stroke-width="10" opacity="1"/><line x1="296" x2="540" y1="392" y2="280" stroke="#55838D" stroke-width="8" opacity="1"/><line x1="296" x2="540" y1="632" y2="280" stroke="#55838D" stroke-width="8" opacity="1"/><line x1="296" x2="540" y1="392" y2="435" stroke="#55838D" stroke-width="8" opacity="1"/><line x1="296" x2="540" y1="632" y2="435" stroke="#55838D" stroke-width="8" opacity="1"/><line x1="296" x2="540" y1="392" y2="590" stroke="#55838D" stroke-width="8" opacity="1"/><line x1="296" x2="540" y1="632" y2="590" stroke="#55838D" stroke-width="8" opacity="1"/><line x1="296" x2="540" y1="392" y2="744" stroke="#55838D" stroke-width="8" opacity="1"/><line x1="296" x2="540" y1="632" y2="744" stroke="#55838D" stroke-width="8" opacity="1"/><line x1="540" x2="785" y1="280" y2="512" stroke="#55838D" stroke-width="8" opacity="1"/><line x1="540" x2="785" y1="435" y2="512" stroke="#55838D" stroke-width="8" opacity="1"/><line x1="540" x2="785" y1="590" y2="512" stroke="#55838D" stroke-width="8" opacity="1"/><line x1="540" x2="785" y1="744" y2="512" stroke="#55838D" stroke-width="8" opacity="1"/><g transform="translate(296, 392)"><circle cx="0" cy="0" r="62" fill="#A2D2DE" opacity=".8"/><circle cx="0" cy="0" r="50" fill="url(#node)" opacity="1"/></g><g transform="translate(296, 632)"><circle cx="0" cy="0" r="62" fill="#A2D2DE" opacity=".8"/><circle cx="0" cy="0" r="50" fill="url(#node)" opacity="1"/></g><g transform="translate(540, 280)"><circle cx="0" cy="0" r="62" fill="#A2D2DE" opacity=".8"/><circle cx="0" cy="0" r="50" fill="url(#node)" opacity="1"/></g><g transform="translate(540, 435)"><circle cx="0" cy="0" r="62" fill="#A2D2DE" opacity=".8"/><circle cx="0" cy="0" r="50" fill="url(#node)" opacity="1"/></g><g transform="translate(540, 590)"><circle cx="0" cy="0" r="62" fill="#A2D2DE" opacity=".8"/><circle cx="0" cy="0" r="50" fill="url(#node)" opacity="1"/></g><g transform="translate(540, 744)"><circle cx="0" cy="0" r="62" fill="#A2D2DE" opacity=".8"/><circle cx="0" cy="0" r="50" fill="url(#node)" opacity="1"/></g><g transform="translate(785, 512)"><circle cx="0" cy="0" r="62" fill="#A2D2DE" opacity=".8"/><circle cx="0" cy="0" r="50" fill="url(#node)" opacity="1"/></g></svg>